<?xml version="1.0" standalone="no"?>
<!DOCTYPE svg PUBLIC "-//W3C//DTD SVG 20010904//EN"
 "http://www.w3.org/TR/2001/REC-SVG-20010904/DTD/svg10.dtd">
<svg version="1.0" xmlns="http://www.w3.org/2000/svg"
 width="1024.000000pt" height="114.000000pt" viewBox="0 0 1024.000000 114.000000"
 preserveAspectRatio="xMidYMid meet">

<g transform="translate(0.000000,114.000000) scale(0.100000,-0.100000)"
fill="#000000" stroke="none">
<path d="M155 870 c-11 -4 -31 -20 -45 -35 -21 -22 -25 -38 -28 -100 l-4 -74
76 -104 c71 -98 76 -108 76 -155 0 -39 -4 -54 -18 -61 -34 -18 -52 5 -52 64
l0 55 -40 0 -40 0 0 -59 c0 -44 6 -66 23 -92 45 -68 134 -69 185 -4 18 23 22
41 22 101 l0 74 -76 104 c-71 99 -75 107 -72 152 3 54 25 77 52 55 11 -9 16
-30 16 -67 l0 -54 40 0 40 0 0 60 c0 75 -20 117 -65 136 -38 16 -60 17 -90 4z"/>
<path d="M1830 806 l0 -66 -30 0 c-28 0 -30 -2 -30 -40 0 -38 2 -40 30 -40
l30 0 0 -152 c0 -169 5 -189 59 -225 49 -33 61 -30 61 15 0 26 -6 41 -20 50
-19 11 -20 23 -20 162 l0 150 25 0 c23 0 25 4 25 40 0 36 -3 40 -25 40 -23 0
-24 4 -27 63 l-3 62 -37 3 -38 3 0 -65z"/>
<path d="M630 801 l0 -58 -47 -6 c-37 -4 -54 -12 -75 -36 l-28 -31 0 -166 c0
-227 11 -244 155 -244 l75 0 0 300 0 300 -40 0 -40 0 0 -59z m0 -301 l0 -160
-35 0 -35 0 0 153 c0 85 3 157 7 160 3 4 19 7 35 7 l28 0 0 -160z"/>
<path d="M900 801 l0 -58 -46 -6 c-32 -3 -55 -13 -73 -31 -26 -26 -26 -29 -29
-184 -5 -239 8 -262 153 -262 l75 0 0 300 0 300 -40 0 -40 0 0 -59z m0 -302
l0 -160 -32 3 -33 3 -3 145 c-1 79 0 150 2 157 3 7 19 13 36 13 l30 0 0 -161z"/>
<path d="M1020 560 l0 -300 40 0 40 0 0 201 0 200 28 -3 27 -3 3 -197 2 -198
40 0 40 0 0 205 0 205 -27 30 c-20 23 -40 33 -70 37 l-43 6 0 58 0 59 -40 0
-40 0 0 -300z"/>
<path d="M360 800 c0 -39 1 -40 35 -40 34 0 35 1 35 40 0 39 -1 40 -35 40 -34
0 -35 -1 -35 -40z"/>
<path d="M1540 506 l0 -246 40 0 40 0 2 198 c3 167 5 197 18 197 13 0 15 -30
18 -197 l2 -198 40 0 40 0 0 206 c0 122 -4 213 -10 225 -16 28 -62 49 -130 56
l-60 6 0 -247z"/>
<path d="M360 500 l0 -240 35 0 35 0 0 240 0 240 -35 0 -35 0 0 -240z"/>
<path d="M1341 727 c-34 -20 -50 -55 -51 -109 l0 -48 35 0 c33 0 35 2 35 33 0
41 12 60 36 55 16 -3 19 -12 19 -58 l0 -55 -44 -6 c-66 -9 -81 -33 -81 -131 0
-78 1 -81 34 -114 32 -32 38 -34 105 -34 l71 0 0 183 c0 191 -8 243 -39 271
-26 23 -90 30 -120 13z m77 -319 c-3 -55 -5 -63 -23 -63 -18 0 -20 8 -23 63
-3 61 -2 62 23 62 25 0 26 -1 23 -62z"/>
<path d="M2010 295 c0 -33 2 -35 35 -35 33 0 35 2 35 35 0 33 -2 35 -35 35
-33 0 -35 -2 -35 -35z"/>
</g>
</svg>
