<svg width="313" height="51" viewBox="0 0 313 51" fill="none" xmlns="http://www.w3.org/2000/svg">
<path d="M16.456 50.448C13.4693 50.448 10.7813 49.936 8.392 48.912C6.00267 47.8453 4.12533 46.352 2.76 44.432C1.39467 42.512 0.712 40.272 0.712 37.712H8.52C8.69067 39.632 9.43733 41.2107 10.76 42.448C12.1253 43.6853 14.024 44.304 16.456 44.304C18.9733 44.304 20.936 43.7067 22.344 42.512C23.752 41.2747 24.456 39.696 24.456 37.776C24.456 36.2827 24.008 35.0667 23.112 34.128C22.2587 33.1893 21.1707 32.464 19.848 31.952C18.568 31.44 16.776 30.8853 14.472 30.288C11.5707 29.52 9.20267 28.752 7.368 27.984C5.576 27.1733 4.04 25.936 2.76 24.272C1.48 22.608 0.84 20.3893 0.84 17.616C0.84 15.056 1.48 12.816 2.76 10.896C4.04 8.976 5.832 7.504 8.136 6.48C10.44 5.456 13.1067 4.944 16.136 4.944C20.4453 4.944 23.9653 6.032 26.696 8.208C29.4693 10.3413 31.0053 13.2853 31.304 17.04H23.24C23.112 15.4187 22.344 14.032 20.936 12.88C19.528 11.728 17.672 11.152 15.368 11.152C13.2773 11.152 11.5707 11.6853 10.248 12.752C8.92533 13.8187 8.264 15.3547 8.264 17.36C8.264 18.7253 8.66933 19.856 9.48 20.752C10.3333 21.6053 11.4 22.288 12.68 22.8C13.96 23.312 15.7093 23.8667 17.928 24.464C20.872 25.2747 23.2613 26.0853 25.096 26.896C26.9733 27.7067 28.552 28.9653 29.832 30.672C31.1547 32.336 31.816 34.576 31.816 37.392C31.816 39.6533 31.1973 41.7867 29.96 43.792C28.7653 45.7973 26.9947 47.4187 24.648 48.656C22.344 49.8507 19.6133 50.448 16.456 50.448Z" fill="#FF004F"/>
<path d="M45.417 10.064C44.0943 10.064 42.985 9.616 42.089 8.72C41.193 7.824 40.745 6.71467 40.745 5.392C40.745 4.06933 41.193 2.96 42.089 2.064C42.985 1.168 44.0943 0.719997 45.417 0.719997C46.697 0.719997 47.785 1.168 48.681 2.064C49.577 2.96 50.025 4.06933 50.025 5.392C50.025 6.71467 49.577 7.824 48.681 8.72C47.785 9.616 46.697 10.064 45.417 10.064ZM49.001 14.736V50H41.705V14.736H49.001ZM57.428 32.208C57.428 28.6667 58.1533 25.5307 59.604 22.8C61.0973 20.0693 63.1027 17.9573 65.62 16.464C68.18 14.928 71.0173 14.16 74.132 14.16C76.436 14.16 78.6973 14.672 80.916 15.696C83.1773 16.6773 84.9693 18 86.292 19.664V2.64H93.652V50H86.292V44.688C85.0973 46.3947 83.4333 47.8027 81.3 48.912C79.2093 50.0213 76.7987 50.576 74.068 50.576C70.996 50.576 68.18 49.808 65.62 48.272C63.1027 46.6933 61.0973 44.5173 59.604 41.744C58.1533 38.928 57.428 35.7493 57.428 32.208ZM86.292 32.336C86.292 29.904 85.78 27.792 84.756 26C83.7747 24.208 82.4733 22.8427 80.852 21.904C79.2307 20.9653 77.4813 20.496 75.604 20.496C73.7267 20.496 71.9773 20.9653 70.356 21.904C68.7347 22.8 67.412 24.144 66.388 25.936C65.4067 27.6853 64.916 29.776 64.916 32.208C64.916 34.64 65.4067 36.7733 66.388 38.608C67.412 40.4427 68.7347 41.8507 70.356 42.832C72.02 43.7707 73.7693 44.24 75.604 44.24C77.4813 44.24 79.2307 43.7707 80.852 42.832C82.4733 41.8933 83.7747 40.528 84.756 38.736C85.78 36.9013 86.292 34.768 86.292 32.336ZM102.083 32.208C102.083 28.6667 102.808 25.5307 104.259 22.8C105.752 20.0693 107.758 17.9573 110.275 16.464C112.835 14.928 115.672 14.16 118.787 14.16C121.091 14.16 123.352 14.672 125.571 15.696C127.832 16.6773 129.624 18 130.947 19.664V2.64H138.307V50H130.947V44.688C129.752 46.3947 128.088 47.8027 125.955 48.912C123.864 50.0213 121.454 50.576 118.723 50.576C115.651 50.576 112.835 49.808 110.275 48.272C107.758 46.6933 105.752 44.5173 104.259 41.744C102.808 38.928 102.083 35.7493 102.083 32.208ZM130.947 32.336C130.947 29.904 130.435 27.792 129.411 26C128.43 24.208 127.128 22.8427 125.507 21.904C123.886 20.9653 122.136 20.496 120.259 20.496C118.382 20.496 116.632 20.9653 115.011 21.904C113.39 22.8 112.067 24.144 111.043 25.936C110.062 27.6853 109.571 29.776 109.571 32.208C109.571 34.64 110.062 36.7733 111.043 38.608C112.067 40.4427 113.39 41.8507 115.011 42.832C116.675 43.7707 118.424 44.24 120.259 44.24C122.136 44.24 123.886 43.7707 125.507 42.832C127.128 41.8933 128.43 40.528 129.411 38.736C130.435 36.9013 130.947 34.768 130.947 32.336ZM167.41 14.16C170.098 14.16 172.487 14.736 174.578 15.888C176.711 17.04 178.375 18.7467 179.57 21.008C180.807 23.2693 181.426 26 181.426 29.2V50H174.194V30.288C174.194 27.1307 173.405 24.72 171.826 23.056C170.247 21.3493 168.093 20.496 165.362 20.496C162.631 20.496 160.455 21.3493 158.834 23.056C157.255 24.72 156.466 27.1307 156.466 30.288V50H149.17V2.64H156.466V18.832C157.703 17.3387 159.261 16.1867 161.138 15.376C163.058 14.5653 165.149 14.16 167.41 14.16ZM189.58 32.208C189.58 28.6667 190.306 25.5307 191.756 22.8C193.25 20.0693 195.255 17.9573 197.772 16.464C200.332 14.928 203.148 14.16 206.22 14.16C208.994 14.16 211.404 14.7147 213.452 15.824C215.543 16.8907 217.207 18.2347 218.444 19.856V14.736H225.804V50H218.444V44.752C217.207 46.416 215.522 47.8027 213.388 48.912C211.255 50.0213 208.823 50.576 206.092 50.576C203.063 50.576 200.29 49.808 197.772 48.272C195.255 46.6933 193.25 44.5173 191.756 41.744C190.306 38.928 189.58 35.7493 189.58 32.208ZM218.444 32.336C218.444 29.904 217.932 27.792 216.908 26C215.927 24.208 214.626 22.8427 213.004 21.904C211.383 20.9653 209.634 20.496 207.756 20.496C205.879 20.496 204.13 20.9653 202.508 21.904C200.887 22.8 199.564 24.144 198.54 25.936C197.559 27.6853 197.068 29.776 197.068 32.208C197.068 34.64 197.559 36.7733 198.54 38.608C199.564 40.4427 200.887 41.8507 202.508 42.832C204.172 43.7707 205.922 44.24 207.756 44.24C209.634 44.24 211.383 43.7707 213.004 42.832C214.626 41.8933 215.927 40.528 216.908 38.736C217.932 36.9013 218.444 34.768 218.444 32.336ZM254.459 14.16C257.233 14.16 259.707 14.736 261.883 15.888C264.102 17.04 265.83 18.7467 267.067 21.008C268.305 23.2693 268.923 26 268.923 29.2V50H261.691V30.288C261.691 27.1307 260.902 24.72 259.323 23.056C257.745 21.3493 255.59 20.496 252.859 20.496C250.129 20.496 247.953 21.3493 246.331 23.056C244.753 24.72 243.963 27.1307 243.963 30.288V50H236.667V14.736H243.963V18.768C245.158 17.3173 246.673 16.1867 248.507 15.376C250.385 14.5653 252.369 14.16 254.459 14.16ZM288.022 20.688V40.208C288.022 41.5307 288.321 42.4907 288.918 43.088C289.558 43.6427 290.625 43.92 292.118 43.92H296.598V50H290.838C287.553 50 285.035 49.232 283.286 47.696C281.537 46.16 280.662 43.664 280.662 40.208V20.688H276.502V14.736H280.662V5.968H288.022V14.736H296.598V20.688H288.022ZM307.546 50.448C306.224 50.448 305.114 50 304.218 49.104C303.322 48.208 302.874 47.0987 302.874 45.776C302.874 44.4533 303.322 43.344 304.218 42.448C305.114 41.552 306.224 41.104 307.546 41.104C308.826 41.104 309.914 41.552 310.81 42.448C311.706 43.344 312.154 44.4533 312.154 45.776C312.154 47.0987 311.706 48.208 310.81 49.104C309.914 50 308.826 50.448 307.546 50.448Z" fill="white"/>
</svg>
